# xmcd
#
# Track frame offsets: 
#        187
#        10565
#        21437
#        34365
#        46787
#        56652
#        68717
#        81070
#
# Disc length: 1245 seconds
#
# Revision: 3
# Processed by: cddbd v1.5.2PL0 Copyright (c) Steve Scherf et al.
# Submitted via: ExactAudioCopy v0.95b3
#
DISCID=5c04db08
DTITLE=Eddie Arnold - Pure Gold
DYEAR=1992
DGENRE=Country
TTITLE0=Anytime
TTITLE1=Bouquet Of Roses
TTITLE2=Just A Little Lovin' (Will Go A Long Way)
TTITLE3=Cattle Call
TTITLE4=What's He Doin' In My World
TTITLE5=Make The World Go Away
TTITLE6=You Don't Know Me
TTITLE7=That's How Much I Love You
EXTD=
EXTT0=
EXTT1=
EXTT2=
EXTT3=
EXTT4=
EXTT5=
EXTT6=
EXTT7=
PLAYORDER=
